<mxfile host="app.diagrams.net" modified="2023-10-10T18:03:01.403Z" agent="Mozilla/5.0 (Windows NT 10.0; Win64; x64) AppleWebKit/537.36 (KHTML, like Gecko) Chrome/117.0.0.0 Safari/537.36" etag="PcRI-p3UDljl4T2Sk9Re" version="22.0.4" type="device">
  <diagram name="Page-1" id="ck9ltAzH-p7sAniKQ5Ld">
    <mxGraphModel dx="1143" dy="692" grid="1" gridSize="10" guides="1" tooltips="1" connect="1" arrows="1" fold="1" page="1" pageScale="1" pageWidth="850" pageHeight="1100" math="0" shadow="0">
      <root>
        <mxCell id="0" />
        <mxCell id="1" parent="0" />
        <mxCell id="thznagCuWPFhpPuxdBGM-3" value="" style="edgeStyle=orthogonalEdgeStyle;rounded=0;orthogonalLoop=1;jettySize=auto;html=1;fontSize=16;" edge="1" parent="1" source="thznagCuWPFhpPuxdBGM-1" target="thznagCuWPFhpPuxdBGM-2">
          <mxGeometry relative="1" as="geometry" />
        </mxCell>
        <mxCell id="thznagCuWPFhpPuxdBGM-1" value="Camunda-app" style="rounded=1;whiteSpace=wrap;html=1;fontSize=16;" vertex="1" parent="1">
          <mxGeometry x="260" y="230" width="120" height="60" as="geometry" />
        </mxCell>
        <mxCell id="thznagCuWPFhpPuxdBGM-2" value="Kafka" style="strokeWidth=2;html=1;shape=mxgraph.flowchart.direct_data;whiteSpace=wrap;fontSize=16;" vertex="1" parent="1">
          <mxGeometry x="275" y="150" width="90" height="30" as="geometry" />
        </mxCell>
      </root>
    </mxGraphModel>
  </diagram>
</mxfile>
